<svg xmlns="http://www.w3.org/2000/svg" width="45" height="45" viewBox="0 0 45 45"><defs><style>.a{fill:#fff;stroke:#d9d9d9;}.b,.c,.e{fill:none;}.b,.c{stroke:#ec5b62;}.b{stroke-linecap:round;}.d{stroke:none;}</style></defs><g transform="translate(-276 -197)"><g class="a" transform="translate(276 197)"><rect class="d" width="45" height="45" rx="8"/><rect class="e" x="0.5" y="0.5" width="44" height="44" rx="7.5"/></g><path class="b" d="M288.962,218.821l1.653,11.134a1.242,1.242,0,0,0,.358.6,1.292,1.292,0,0,0,.68.2h8.78a1.122,1.122,0,0,0,.662-.281,1.508,1.508,0,0,0,.292-.736l1.536-10.922" transform="translate(2.64 -1)"/><g class="c" transform="translate(294 210)"><path class="d" d="M2,0H7A2,2,0,0,1,9,2V5A0,0,0,0,1,9,5H0A0,0,0,0,1,0,5V2A2,2,0,0,1,2,0Z"/><path class="e" d="M2,.5H7A1.5,1.5,0,0,1,8.5,2V4a.5.5,0,0,1-.5.5H1A.5.5,0,0,1,.5,4V2A1.5,1.5,0,0,1,2,.5Z"/></g><path class="b" d="M303,213.409h20.26" transform="translate(-14.672 1.091)"/></g></svg>